<svg xmlns="http://www.w3.org/2000/svg" xmlns:xlink="http://www.w3.org/1999/xlink" width="311.771" height="82.236" viewBox="0 0 311.771 82.236">
  <defs>
    <clipPath id="clip-path">
      <rect id="Rectangle_2063" data-name="Rectangle 2063" width="69.657" height="82.237" fill="#fff"/>
    </clipPath>
  </defs>
  <g id="Group_2547" data-name="Group 2547" transform="translate(20163.811 20639.627)">
    <g id="Group_2546" data-name="Group 2546" transform="translate(-20163.811 -20639.627)">
      <g id="Group_2307" data-name="Group 2307" clip-path="url(#clip-path)">
        <path id="Path_41939" data-name="Path 41939" d="M12.639,69.376H.086A.086.086,0,0,1,0,69.29V.281A.269.269,0,0,1,.27.014Q8.428,0,17.649.005,39.692.017,47.708,0a9.5,9.5,0,0,1,3.426.551,9.082,9.082,0,0,1,4.99,4.679,9.947,9.947,0,0,1,.662,5.814.121.121,0,0,1-.134.1L51.8,10.529a.208.208,0,0,1-.2-.3,3.957,3.957,0,0,0-.582-3.56,3.794,3.794,0,0,0-3.167-1.536Q24.941,5.132,5.23,5.155a.086.086,0,0,0-.086.086V64.174a.1.1,0,0,0,.095.095q32.8,0,42.815-.008a3.9,3.9,0,0,0,3.254-5.522,3.71,3.71,0,0,0-2.221-1.948,10.589,10.589,0,0,0-2.775-.234q-10.738.011-20.555,0a.145.145,0,0,1-.164-.164V51.633a.145.145,0,0,1,.164-.164q11.47-.025,22.091,0a8.9,8.9,0,0,1,2.1.175A9.031,9.031,0,0,1,55.7,56.027,8.924,8.924,0,0,1,53.612,67.3a8.644,8.644,0,0,1-4.25,1.979q-.632.1-4.567.1-13.374,0-26.747,0a.087.087,0,0,0-.1.1v7.507a.089.089,0,0,0,.1.1q23.658,0,30.073-.014A16.773,16.773,0,0,0,64.28,63.217a15.756,15.756,0,0,0-.47-7.565,16.5,16.5,0,0,0-5.166-7.921.184.184,0,0,1-.019-.259.157.157,0,0,1,.019-.019,16.628,16.628,0,0,0-.69-25.9,16.3,16.3,0,0,0-10.037-3.415q-3.6-.045-22.183-.033a.125.125,0,0,1-.142-.142v-4.8a.145.145,0,0,1,.164-.164q9.394-.014,22.366.011a15.906,15.906,0,0,1,3.187.195c1.074.289,2.254.484,3.226.807a21.826,21.826,0,0,1,11.094,33.4.245.245,0,0,0-.022.264q.114.231.584.971A21.831,21.831,0,0,1,53.5,81.478c-1.1.315-2.018.337-3.042.571a13.3,13.3,0,0,1-2.95.156q-25.679.047-34.607.025a.1.1,0,0,1-.109-.109V69.532a.138.138,0,0,0-.156-.156" transform="translate(0 0)" fill="#fff"/>
        <path id="Path_41940" data-name="Path 41940" d="M90.018,68.455a9.025,9.025,0,0,1-6.246,8.581,15.291,15.291,0,0,1-4.153.39l-28.409,0a.086.086,0,0,0-.086.086V90.142a.09.09,0,0,1-.1.1h-4.9a.135.135,0,0,1-.153-.153V72.4a.081.081,0,0,1,.081-.081l34.83,0a3.865,3.865,0,1,0,0-7.724H46.053a.081.081,0,0,1-.081-.081l0-17.691a.135.135,0,0,1,.153-.153h4.9a.09.09,0,0,1,.1.1l0,12.628a.086.086,0,0,0,.086.086H79.62a15.241,15.241,0,0,1,4.153.387,9.031,9.031,0,0,1,6.246,8.581" transform="translate(-33.175 -33.68)" fill="#fff"/>
      </g>
    </g>
    <g id="Group_2545" data-name="Group 2545" transform="translate(-20144 -20651)">
      <g id="Group_2175" data-name="Group 2175" transform="translate(71.443 28.387)">
        <path id="Path_41813" data-name="Path 41813" d="M13.643,11.083v5.211h8.414v4.542H13.643v5.527h9.47v4.824H7.622V6.295H23.113v4.788Z" transform="translate(-7.622 -2.844)" fill="#fff"/>
        <path id="Path_41814" data-name="Path 41814" d="M51.967,11.357a5.93,5.93,0,0,1,2.359,2.781V4.175h6.02V30.228h-6.02V26.672a5.929,5.929,0,0,1-2.359,2.782,7.116,7.116,0,0,1-3.873,1.021,7.95,7.95,0,0,1-4.348-1.215,8.306,8.306,0,0,1-3.028-3.5,12.151,12.151,0,0,1-1.109-5.352,12.121,12.121,0,0,1,1.109-5.369,8.326,8.326,0,0,1,3.028-3.486,7.954,7.954,0,0,1,4.348-1.215,7.116,7.116,0,0,1,3.873,1.021m-5.053,5.527a4.966,4.966,0,0,0-1.18,3.521,4.964,4.964,0,0,0,1.18,3.521,4.419,4.419,0,0,0,6.232-.035,4.9,4.9,0,0,0,1.214-3.486,4.892,4.892,0,0,0-1.214-3.5,4.1,4.1,0,0,0-3.116-1.285,4.054,4.054,0,0,0-3.116,1.268" transform="translate(-22.076 -1.887)" fill="#fff"/>
        <path id="Path_41815" data-name="Path 41815" d="M115.083,20.553a5.977,5.977,0,0,1,1.32,3.838,6.182,6.182,0,0,1-2.131,5,9.227,9.227,0,0,1-6.108,1.8H96.581V6.294h11.3a9.233,9.233,0,0,1,5.88,1.655,5.685,5.685,0,0,1,2.077,4.718,5.815,5.815,0,0,1-1.2,3.75,5.516,5.516,0,0,1-3.133,1.954,6.233,6.233,0,0,1,3.573,2.183M102.6,16.469h3.943q3.133,0,3.134-2.675t-3.2-2.676H102.6Zm7.64,7.077a2.619,2.619,0,0,0-.88-2.095,3.726,3.726,0,0,0-2.5-.757H102.6v5.6h4.3q3.345,0,3.345-2.746" transform="translate(-47.82 -2.844)" fill="#fff"/>
        <path id="Path_41816" data-name="Path 41816" d="M155.525,26.576H141.9a4.551,4.551,0,0,0,1.127,3.186,3.631,3.631,0,0,0,2.605.968,3.562,3.562,0,0,0,2.218-.669,3.128,3.128,0,0,0,1.161-1.726h6.373a8.336,8.336,0,0,1-1.69,3.715,9.012,9.012,0,0,1-3.31,2.57,11.3,11.3,0,0,1-9.594-.282,8.673,8.673,0,0,1-3.5-3.5,10.866,10.866,0,0,1-1.267-5.351,10.965,10.965,0,0,1,1.25-5.37,8.561,8.561,0,0,1,3.5-3.486,11.559,11.559,0,0,1,10.281-.018,8.464,8.464,0,0,1,3.433,3.362,10.005,10.005,0,0,1,1.215,4.982,8.351,8.351,0,0,1-.176,1.62m-6.954-5.44a3.827,3.827,0,0,0-2.658-.969,3.94,3.94,0,0,0-2.746.986,4.119,4.119,0,0,0-1.232,2.887h7.675a3.621,3.621,0,0,0-1.039-2.9" transform="translate(-65.641 -6.966)" fill="#fff"/>
        <path id="Path_41817" data-name="Path 41817" d="M185.923,16.536a7.409,7.409,0,0,1,3.855-1.056v6.443h-1.725a5.951,5.951,0,0,0-3.715,1.021,4.1,4.1,0,0,0-1.32,3.45v8.943H177V15.691h6.021v3.7a8.531,8.531,0,0,1,2.9-2.852" transform="translate(-84.157 -6.995)" fill="#fff"/>
        <path id="Path_41818" data-name="Path 41818" d="M223.414,17.732a9.042,9.042,0,0,1,1.989,6.2V35.336h-6.02v-10.7a4.332,4.332,0,0,0-1.039-3.081,3.607,3.607,0,0,0-2.764-1.109,3.761,3.761,0,0,0-2.9,1.161,4.7,4.7,0,0,0-1.074,3.31V35.336h-6.021V15.69H211.6v3.591a6.487,6.487,0,0,1,2.517-2.781,7.382,7.382,0,0,1,3.926-1.021,6.8,6.8,0,0,1,5.37,2.253" transform="translate(-97.073 -6.994)" fill="#fff"/>
        <path id="Path_41819" data-name="Path 41819" d="M260.864,17.282a8.108,8.108,0,0,1,2.8,4.929H258.03a3.125,3.125,0,0,0-1.109-1.883,3.371,3.371,0,0,0-2.166-.687,2.368,2.368,0,0,0-1.549.44,1.539,1.539,0,0,0-.528,1.25,1.466,1.466,0,0,0,.969,1.374,15.451,15.451,0,0,0,3.045.915,30.207,30.207,0,0,1,3.7,1.074,6.1,6.1,0,0,1,2.5,1.778,4.914,4.914,0,0,1,1.056,3.31,5.077,5.077,0,0,1-.915,2.993,6.032,6.032,0,0,1-2.64,2.042,10.322,10.322,0,0,1-4.084.739,10.514,10.514,0,0,1-6.372-1.76,7.428,7.428,0,0,1-2.923-5.035h5.809a2.613,2.613,0,0,0,1.074,1.937,4.041,4.041,0,0,0,2.412.669,2.244,2.244,0,0,0,1.549-.475,1.6,1.6,0,0,0,.528-1.25,1.5,1.5,0,0,0-.969-1.461,17.852,17.852,0,0,0-3.151-.933,25.139,25.139,0,0,1-3.591-.986,5.926,5.926,0,0,1-2.429-1.707,4.754,4.754,0,0,1-1.021-3.222,5.258,5.258,0,0,1,2.007-4.278,8.746,8.746,0,0,1,5.669-1.637,9.014,9.014,0,0,1,5.968,1.866" transform="translate(-115.793 -6.966)" fill="#fff"/>
        <path id="Path_41820" data-name="Path 41820" d="M293.242,26.359v5.175h-2.711a7.8,7.8,0,0,1-5.369-1.707q-1.919-1.708-1.919-5.651V16.958H280.6v-5.07h2.641V7.065h6.021v4.824h3.943v5.07h-3.943v7.323a2.206,2.206,0,0,0,.475,1.62,2.272,2.272,0,0,0,1.6.458Z" transform="translate(-130.973 -3.192)" fill="#fff"/>
        <path id="Path_41821" data-name="Path 41821" d="M326.828,26.576H313.2a4.553,4.553,0,0,0,1.127,3.186,3.631,3.631,0,0,0,2.605.968,3.562,3.562,0,0,0,2.218-.669,3.128,3.128,0,0,0,1.161-1.726h6.373A8.336,8.336,0,0,1,325,32.051a9.015,9.015,0,0,1-3.309,2.57,11.3,11.3,0,0,1-9.595-.282,8.676,8.676,0,0,1-3.5-3.5,10.866,10.866,0,0,1-1.267-5.351,10.965,10.965,0,0,1,1.25-5.37,8.56,8.56,0,0,1,3.5-3.486,11.558,11.558,0,0,1,10.28-.018,8.46,8.46,0,0,1,3.433,3.362A10.005,10.005,0,0,1,327,24.956a8.349,8.349,0,0,1-.176,1.62m-6.954-5.44a3.826,3.826,0,0,0-2.658-.969,3.942,3.942,0,0,0-2.746.986,4.121,4.121,0,0,0-1.232,2.887h7.676a3.624,3.624,0,0,0-1.039-2.9" transform="translate(-143.047 -6.966)" fill="#fff"/>
        <path id="Path_41822" data-name="Path 41822" d="M348.259.9a4.229,4.229,0,0,1,5.211,0,2.941,2.941,0,0,1,.986,2.271A2.9,2.9,0,0,1,353.47,5.4a4.229,4.229,0,0,1-5.211,0,2.9,2.9,0,0,1-.986-2.236A2.939,2.939,0,0,1,348.259.9m5.6,27.445h-6.02V8.7h6.02Z" transform="translate(-161.099)" fill="#fff"/>
        <path id="Path_41823" data-name="Path 41823" d="M384.054,17.732a9.042,9.042,0,0,1,1.989,6.2V35.336h-6.02v-10.7a4.332,4.332,0,0,0-1.039-3.081,3.607,3.607,0,0,0-2.764-1.109,3.762,3.762,0,0,0-2.9,1.161,4.7,4.7,0,0,0-1.074,3.31V35.336h-6.02V15.69h6.02v3.591A6.485,6.485,0,0,1,374.76,16.5a7.381,7.381,0,0,1,3.925-1.021,6.8,6.8,0,0,1,5.369,2.253" transform="translate(-169.661 -6.994)" fill="#fff"/>
      </g>
      <g id="Group_2176" data-name="Group 2176" transform="translate(91.533 67.969)">
        <rect id="Rectangle_1993" data-name="Rectangle 1993" width="2.249" height="11.259" transform="translate(0 0.159)" fill="#fff"/>
        <path id="Path_41824" data-name="Path 41824" d="M68.622,83.763H66.373l-5.04-7.655v7.655H59.085V72.5h2.248l5.04,7.719V72.5h2.249Z" transform="translate(-50.967 -72.344)" fill="#fff"/>
        <path id="Path_41825" data-name="Path 41825" d="M92.981,72.5v7.942a3.418,3.418,0,0,1-.9,2.528,3.371,3.371,0,0,1-2.5.9,3.717,3.717,0,0,1-2.728-.989,3.782,3.782,0,0,1-1-2.822h2.217a2.123,2.123,0,0,0,.359,1.324,1.259,1.259,0,0,0,1.061.463,1.14,1.14,0,0,0,.941-.375,1.593,1.593,0,0,0,.3-1.029V72.5Z" transform="translate(-63.062 -72.344)" fill="#fff"/>
        <path id="Path_41826" data-name="Path 41826" d="M111.536,72.5v6.6a2.933,2.933,0,0,0,.582,1.986,2.451,2.451,0,0,0,3.35,0,2.936,2.936,0,0,0,.582-1.986V72.5h2.233v6.6a5.487,5.487,0,0,1-.582,2.639,3.746,3.746,0,0,1-1.61,1.6,5.054,5.054,0,0,1-2.337.527,4.372,4.372,0,0,1-3.237-1.212,4.818,4.818,0,0,1-1.212-3.556V72.5Z" transform="translate(-73.659 -72.344)" fill="#fff"/>
        <path id="Path_41827" data-name="Path 41827" d="M142.143,83.762l-2.631-4.386h-.989v4.386h-2.249V72.5h4.291a4.239,4.239,0,0,1,2.99.957,3.588,3.588,0,0,1,.319,4.657,3.5,3.5,0,0,1-2.05,1.148l2.808,4.5Zm-3.62-5.932h1.85q1.93,0,1.93-1.706a1.682,1.682,0,0,0-.471-1.268,2.036,2.036,0,0,0-1.459-.454h-1.85Z" transform="translate(-85.846 -72.344)" fill="#fff"/>
        <path id="Path_41828" data-name="Path 41828" d="M169.571,72.5l-3.812,7.32v3.939h-2.264V79.823l-3.828-7.32h2.584l2.392,4.928,2.392-4.928Z" transform="translate(-96.417 -72.344)" fill="#fff"/>
        <path id="Path_41829" data-name="Path 41829" d="M202.5,82.04h3.78v1.723h-6.028V72.5H202.5Z" transform="translate(-114.757 -72.344)" fill="#fff"/>
        <path id="Path_41830" data-name="Path 41830" d="M226.853,81.6H222.34l-.8,2.265h-2.377l4.147-11.132h2.568l4.13,11.132h-2.376Zm-.606-1.706-1.659-4.752L222.93,79.9Z" transform="translate(-123.302 -72.449)" fill="#fff"/>
        <path id="Path_41831" data-name="Path 41831" d="M261.91,72.5l-2.759,11.259h-2.775l-2.1-8.165-2.121,8.165h-2.759L246.632,72.5h2.44l1.723,8.724,2.233-8.724H255.5l2.248,8.724L259.47,72.5Z" transform="translate(-135.713 -72.344)" fill="#fff"/>
        <path id="Path_41832" data-name="Path 41832" d="M292.672,72.5l-3.811,7.32v3.939H286.6V79.823l-3.827-7.32h2.583l2.392,4.928,2.392-4.928Z" transform="translate(-152.042 -72.344)" fill="#fff"/>
        <path id="Path_41833" data-name="Path 41833" d="M312.279,74.29v2.918h3.987v1.723h-3.987v3.03h4.465v1.8H310.03V72.5h6.714V74.29Z" transform="translate(-164.361 -72.344)" fill="#fff"/>
        <path id="Path_41834" data-name="Path 41834" d="M338.157,83.762l-2.631-4.386h-.989v4.386h-2.249V72.5h4.29a4.241,4.241,0,0,1,2.991.957,3.281,3.281,0,0,1,1.028,2.52,3.248,3.248,0,0,1-.71,2.137,3.5,3.5,0,0,1-2.049,1.148l2.808,4.5Zm-3.62-5.932h1.85q1.93,0,1.93-1.706a1.682,1.682,0,0,0-.471-1.268,2.036,2.036,0,0,0-1.459-.454h-1.85Z" transform="translate(-174.418 -72.344)" fill="#fff"/>
        <path id="Path_41835" data-name="Path 41835" d="M364.209,82.14a3.093,3.093,0,0,1-1.276,1.164,4.421,4.421,0,0,1-2.058.439,5.346,5.346,0,0,1-2.137-.407,3.624,3.624,0,0,1-1.507-1.172,3.38,3.38,0,0,1-.646-1.786h2.393a1.826,1.826,0,0,0,.55,1.14,1.725,1.725,0,0,0,1.252.454,1.459,1.459,0,0,0,1.077-.374,1.306,1.306,0,0,0,.375-.965,1.263,1.263,0,0,0-.3-.869,2.208,2.208,0,0,0-.766-.55q-.462-.207-1.276-.479a12.5,12.5,0,0,1-1.722-.694,3.17,3.17,0,0,1-1.14-1,2.852,2.852,0,0,1-.471-1.706A2.776,2.776,0,0,1,357.6,73.05a4.292,4.292,0,0,1,2.767-.837,4.383,4.383,0,0,1,2.847.861,3.25,3.25,0,0,1,1.2,2.3h-2.424a1.689,1.689,0,0,0-.51-1,1.581,1.581,0,0,0-1.132-.391,1.494,1.494,0,0,0-1,.327,1.332,1.332,0,0,0-.088,1.77,2.248,2.248,0,0,0,.75.534,12.375,12.375,0,0,0,1.236.463,16.273,16.273,0,0,1,1.762.718,3.1,3.1,0,0,1,1.156,1,2.952,2.952,0,0,1,.479,1.754,3.057,3.057,0,0,1-.431,1.587" transform="translate(-185.383 -72.213)" fill="#fff"/>
      </g>
      <rect id="Rectangle_1994" data-name="Rectangle 1994" width="224.696" height="2.296" transform="translate(67.266 61.215)" fill="#f47d23"/>
    </g>
  </g>
</svg>
